<svg xmlns="http://www.w3.org/2000/svg" viewBox="0 0 24 24" width="1em" height="1em" fill="currentColor">
  <defs
     id="defs1" />
  <g
     id="g1"
     transform="translate(-15.7174,-0.72041016)">
    <path
       style="fill-opacity:1;stroke-width:0.0297833"
       d="m 28.163844,24.71983 -0.03053,-9.77e-4 -0.0953,-0.03947 -0.0953,-0.03948 -0.04971,-0.06755 -0.04971,-0.06755 v -0.07003 -0.07001 l 0.05893,-0.0906 0.05893,-0.0906 1.223277,-1.142985 1.223278,-1.142988 v -0.687796 -0.687796 l -0.765243,-0.726197 -0.765245,-0.726195 -0.04481,-0.08038 -0.04481,-0.08038 0.02111,-1.200781 0.02111,-1.200778 -0.230267,-0.258839 -0.230266,-0.258839 -0.121438,-0.166214 -0.121437,-0.166211 -0.01827,0.01739 -0.01828,0.01739 -0.0012,2.081079 -0.0012,2.081077 -0.01968,0.33989 -0.01968,0.339893 0.172495,0.0726 0.172494,0.07261 0.164021,0.147642 0.164022,0.147642 0.08298,0.175974 0.08298,0.17597 -0.01084,0.266337 -0.01084,0.266343 -0.0806,0.164324 -0.08061,0.164326 -0.128597,0.118784 -0.128598,0.118778 -0.201957,0.09463 -0.201955,0.09463 -0.290665,-3.18e-4 -0.290667,-3.17e-4 -0.176929,-0.0786 -0.176931,-0.0786 -0.176817,-0.16829 -0.176817,-0.168293 -0.06862,-0.174127 -0.06862,-0.174126 0.0116,-0.246981 0.0116,-0.246978 0.07398,-0.145284 0.07398,-0.145284 0.146421,-0.139814 0.14642,-0.139814 0.172319,-0.07509 0.17232,-0.07509 -0.02003,-1.020004 -0.02003,-1.020001 -3.44e-4,-1.670751 -3.45e-4,-1.670756 -0.124656,0.187032 -0.124656,0.187036 -0.228941,0.270918 -0.228943,0.270917 0.02245,1.55457 0.02245,1.554568 -0.362625,0.355591 -0.362626,0.355589 -0.727231,0.697358 -0.727231,0.697359 0.0093,0.593796 0.0093,0.593796 0.172661,0.09599 0.172661,0.09599 0.122115,0.132043 0.122115,0.132041 0.07067,0.137042 0.07066,0.137042 8.88e-4,0.261944 8.87e-4,0.261938 -0.100152,0.193809 -0.100152,0.193805 -0.150794,0.129038 -0.150792,0.129041 -0.143692,0.06428 -0.143693,0.06429 -0.152918,0.023 -0.15292,0.023 -0.185133,-0.02191 -0.185134,-0.02191 -0.143985,-0.0645 -0.143984,-0.0645 -0.132999,-0.111425 -0.132999,-0.111424 -0.09434,-0.169134 -0.09434,-0.169138 -0.03058,-0.159817 -0.03057,-0.159804 0.03026,-0.157629 0.03026,-0.157626 0.06516,-0.132939 0.06515,-0.132936 0.153823,-0.146725 0.153823,-0.14672 0.137379,-0.06044 0.13738,-0.06044 0.0494,-0.01566 0.04939,-0.01566 -0.01553,-0.667599 -0.01553,-0.6676 0.06734,-0.132378 0.06734,-0.132383 1.023202,-0.952048 1.023202,-0.952047 -0.02162,-1.090638 -0.02163,-1.090635 -0.0055,-0.0065 -0.0055,-0.0065 -0.517301,0.485962 -0.517301,0.485961 -0.771531,0.725784 -0.771531,0.725783 0.06626,0.145912 0.06626,0.145913 -0.0011,0.232455 -0.0011,0.23245 -0.03319,0.116674 -0.03319,0.116673 -0.09009,0.135201 -0.09009,0.135204 -0.156847,0.118005 -0.156848,0.118001 -0.1997,0.0587 -0.199695,0.05871 h -0.09947 -0.09947 l -0.161173,-0.0291 -0.161173,-0.0291 -0.138424,-0.06534 -0.138423,-0.06534 -0.143995,-0.133125 -0.143993,-0.133124 -0.06016,-0.113858 -0.06016,-0.113856 -0.03829,-0.154815 -0.03829,-0.154816 0.02027,-0.14547 0.02028,-0.145467 0.05951,-0.151396 0.05952,-0.151395 0.154107,-0.164569 0.154105,-0.164565 0.198046,-0.09279 0.198044,-0.09279 0.224856,-0.01373 0.224855,-0.01373 0.155168,0.03543 0.155164,0.03543 1.659242,-1.579065 1.659241,-1.579065 0.191529,-0.261507 0.191529,-0.261512 0.122204,-0.230604 0.122205,-0.230606 0.07003,-0.263359 0.07003,-0.263352 0.03354,-0.261512 0.03354,-0.261508 7.3e-5,-0.494724 7.2e-5,-0.494725 -0.03214,-0.246218 -0.03214,-0.246217 -0.04629,-0.214691 -0.04629,-0.214694 -0.09305,-0.244762 -0.09305,-0.244761 -0.09564,-0.135078 -0.09564,-0.135079 -0.09188,-0.05057 -0.09188,-0.05057 -0.422888,-0.0614 -0.422889,-0.0614 -0.263718,-0.07091 -0.263642,-0.071 -0.274724,-0.13094 L 24.439317,10.27924 24.21765,10.104286 23.995982,9.929335 23.857239,9.7632038 23.718498,9.597076 23.577264,9.3233698 23.43603,9.0496614 23.42272,8.896886 l -0.0133,-0.1527722 0.07544,-0.0718 0.07544,-0.0718 0.180024,-0.038983 0.180022,-0.038983 0.457933,-1.026e-4 0.457931,-1.029e-4 0.241643,0.066465 0.241644,0.066464 0.216287,0.1027372 0.216288,0.102736 0.226754,0.1645719 0.226754,0.164572 0.165462,0.189105 0.165462,0.189102 0.283217,0.4067924 0.283214,0.4067932 0.133082,0.241138 0.133084,0.241139 0.01027,-0.02932 0.01028,-0.02933 -0.04684,-0.298959 -0.04683,-0.298971 -0.0741,-0.2773439 L 27.147786,9.6526872 27.022664,9.348901 26.897541,9.0451214 26.738883,8.7836107 26.580225,8.5221024 26.349304,8.3013998 26.118382,8.0806968 25.874184,7.9918994 25.629956,7.903093 25.093445,7.771492 24.556935,7.6398944 24.279359,7.525996 24.001782,7.4120949 23.737364,7.2429065 23.472944,7.0737176 23.280814,6.8733549 23.088683,6.6729925 22.97026,6.4808077 22.851837,6.2886198 22.772607,6.1123473 22.693377,5.9360751 22.629146,5.6890937 22.564913,5.4421121 22.485559,5.1250025 22.406202,4.8078898 22.300836,4.5482204 22.195458,4.2885569 V 4.1883868 4.0882166 l 0.07718,-0.068075 0.07718,-0.068078 0.12889,-0.016811 0.128891,-0.016811 0.213702,-0.018062 0.2137,-0.018094 0.320552,0.033465 0.320552,0.033465 0.228966,0.055358 0.228966,0.055361 0.225515,0.073256 0.225514,0.07326 0.232417,0.1192618 0.232418,0.119262 0.213699,0.1335772 0.213702,0.1335776 0.305287,0.2942576 0.305289,0.2942578 0.149594,0.241819 0.149595,0.2418159 0.08566,0.2535485 0.08566,0.2535485 0.03225,0.1855538 0.03225,0.1855537 0.01967,0.4148866 0.01966,0.4148892 0.211923,0.2824708 0.211923,0.2824706 0.07331,0.1234875 0.07331,0.1234937 0.07902,0.1330352 0.07902,0.1330351 0.005,-0.00953 0.005,-0.00956 -0.01532,-1.293017 L 27.370134,5.9651294 27.270022,5.7907852 27.169975,5.6164475 26.862846,5.2677688 26.555719,4.9190905 26.401382,4.703584 26.24704,4.4880791 26.131776,4.2532089 26.016511,4.0183385 l -0.04842,-0.1790601 -0.04842,-0.179057 -0.01861,-0.256792 -0.01861,-0.2567888 0.05019,-0.2737571 0.05019,-0.2737538 0.07317,-0.1723999 0.07317,-0.1723999 0.147268,-0.2366732 0.147269,-0.2366734 0.461493,-0.4412965 0.461492,-0.44129326 0.147429,-0.0889896 0.147427,-0.0889862 0.09324,9.6238e-4 0.09324,9.6237e-4 0.06599,0.0352903 0.06599,0.0352936 0.308339,0.25779941 0.308339,0.2578058 0.226369,0.2290281 0.226368,0.2290281 0.143659,0.2056691 0.143659,0.2056756 0.0851,0.1937217 0.08511,0.1937217 0.04825,0.2239623 0.04825,0.2239655 v 0.2590092 0.2590089 l -0.07551,0.2833016 -0.0755,0.2833013 -0.121756,0.2394197 -0.121757,0.2394227 -0.189702,0.2437376 -0.189704,0.2437378 -0.235299,0.2650597 -0.235299,0.2650595 -0.08463,0.1374463 -0.08463,0.1374495 -0.04058,0.1640938 -0.04058,0.1640975 -5.32e-4,1.2050284 -4.95e-4,1.2050247 0.105528,-0.2095797 0.105528,-0.2095797 0.128643,-0.181861 0.128642,-0.1818643 0.13752,-0.1680945 0.13752,-0.1680942 0.03847,-0.5437929 0.03847,-0.5437923 0.08031,-0.2615082 0.08032,-0.2615079 0.137393,-0.2481461 0.137392,-0.2481427 0.200798,-0.2253256 0.200797,-0.2253229 0.247472,-0.1887906 0.247472,-0.1887906 0.236151,-0.1320438 0.236151,-0.1320469 0.252025,-0.1011647 0.252025,-0.1011648 0.290308,-0.070786 0.290306,-0.070783 0.368015,-0.032859 0.368015,-0.032855 0.285425,0.032117 0.285423,0.032121 0.07003,0.062621 0.07004,0.062621 0.01833,0.079429 0.01834,0.079426 -0.124102,0.2929643 -0.1241,0.2929645 -0.07919,0.3285819 -0.07919,0.3285793 -0.07396,0.2750051 -0.07396,0.2750017 -0.10548,0.2087233 -0.105478,0.2087267 -0.178407,0.2290124 -0.178404,0.229012 -0.165396,0.132483 -0.165398,0.13248 -0.137378,0.088024 -0.13738,0.088024 -0.213702,0.1014439 -0.2137,0.1014435 -0.198436,0.061299 -0.198438,0.0613 -0.488461,0.1178155 -0.488459,0.1178118 -0.167909,0.062791 -0.167908,0.062791 -0.108737,0.064187 -0.108737,0.064183 -0.142272,0.150613 -0.142273,0.1506096 -0.12487,0.1793617 -0.12487,0.1793652 -0.148706,0.2905647 -0.148706,0.2905646 -0.07989,0.2615116 -0.07989,0.2615082 -0.05694,0.319623 -0.05693,0.319625 -0.01963,0.202663 -0.01963,0.202666 0.01818,-0.01732 0.01819,-0.01729 0.10753,-0.199885 0.107528,-0.199884 0.227771,-0.363209 0.22777,-0.3632097 0.15664,-0.1989158 0.156641,-0.1989189 0.200473,-0.1908089 0.200472,-0.1908021 0.223611,-0.1389349 0.22361,-0.1389351 0.174236,-0.062429 0.174236,-0.062425 0.226217,-0.055421 0.226217,-0.055425 h 0.393596 0.393595 l 0.207955,0.045021 0.207955,0.045015 0.06482,0.057485 0.06483,0.057484 0.0204,0.077386 0.0204,0.077385 -0.03665,0.1324706 -0.03665,0.1324709 -0.09083,0.1860827 -0.09083,0.1860796 -0.154423,0.1982585 -0.154422,0.1982607 -0.157902,0.1360084 -0.157898,0.136002 -0.198436,0.122798 -0.198438,0.122801 -0.188801,0.07557 -0.188799,0.07558 -0.224224,0.05855 -0.224223,0.05855 -0.426518,0.05766 -0.426517,0.05766 -0.03582,3.21e-4 -0.03582,3.21e-4 -0.09554,0.07652 -0.09555,0.07652 -0.09004,0.169759 -0.09004,0.169759 -0.07723,0.225186 -0.07723,0.225181 -0.06751,0.334857 -0.06751,0.334858 0.0012,0.958869 0.0012,0.958864 0.06566,0.287328 0.06566,0.287328 0.138088,0.264826 0.138088,0.264822 0.196407,0.232377 0.196407,0.232374 0.392136,0.362388 0.392134,0.362386 0.885335,0.829036 0.885333,0.829035 0.76114,0.711383 0.761139,0.711386 0.04005,0.07304 0.04005,0.07304 1.57e-4,0.656627 1.58e-4,0.656621 0.129747,0.05506 0.129747,0.05506 0.134037,0.116429 0.134037,0.11643 0.06946,0.104504 0.06946,0.104505 0.04837,0.155014 0.04838,0.155018 v 0.137418 0.137421 l -0.05791,0.177103 -0.05791,0.177102 -0.117236,0.146318 -0.117237,0.14631 -0.153034,0.09954 -0.153035,0.09953 -0.181954,0.04454 -0.181955,0.04454 h -0.109287 -0.109287 l -0.181955,-0.04454 -0.181954,-0.04454 -0.165077,-0.107421 -0.165075,-0.107433 -0.101909,-0.131331 -0.10191,-0.131332 -0.0612,-0.184664 -0.0612,-0.184665 v -0.111756 -0.111736 l 0.03429,-0.153979 0.03429,-0.153975 0.05418,-0.101697 0.05418,-0.1017 0.115487,-0.11294 0.11549,-0.112935 0.13783,-0.08319 0.13783,-0.0832 h 0.05152 0.05152 l 0.01251,-0.06538 0.01251,-0.06538 -0.01243,-0.516586 -0.01243,-0.516591 -1.569912,-1.473786 -1.569909,-1.473787 -0.02937,-0.0097 -0.02937,-0.0097 0.0032,0.852326 0.0032,0.852327 0.803465,0.74094 0.803465,0.740944 0.02167,0.04358 0.02166,0.04359 -0.0062,0.869956 -0.0062,0.869955 -0.04064,0.07438 -0.04064,0.07438 -1.295349,1.224938 -1.295352,1.224948 -0.119543,0.0316 -0.119545,0.0316 z m -3.986009,-0.755313 0.07431,9.76e-4 0.134738,-0.06208 0.134737,-0.06209 0.05796,-0.09047 0.05796,-0.09047 1.47e-4,-0.141851 1.46e-4,-0.141851 -0.06221,-0.0958 -0.06221,-0.0958 -0.130603,-0.06017 -0.130618,-0.06017 h -0.09006 -0.09006 l -0.106373,0.0538 -0.106375,0.0538 -0.06869,0.09578 -0.06869,0.09578 v 0.154501 0.154501 l 0.09865,0.106943 0.09865,0.10694 0.09215,0.03822 0.09215,0.03822 z m 8.864532,-1.371173 0.17709,-0.01181 0.112934,-0.107488 0.112929,-0.107485 V 22.16599 21.965418 l -0.07632,-0.07774 -0.07632,-0.07775 -0.08243,-0.04082 -0.08244,-0.04083 -0.131262,7.4e-5 -0.131265,7.7e-5 -0.0995,0.05774 -0.0995,0.05774 -0.06066,0.0947 -0.06066,0.0947 -1.12e-4,0.11668 -1.13e-4,0.11668 0.05653,0.101245 0.05653,0.101245 0.103748,0.06795 0.10375,0.06795 z m -5.293301,-0.574479 h 0.140972 l 0.105613,-0.05391 0.105615,-0.05391 0.06945,-0.125001 0.06945,-0.124999 -0.0013,-0.08986 -0.0013,-0.08987 -0.05236,-0.09339 -0.05236,-0.0934 -0.10493,-0.07368 -0.104932,-0.07368 -0.154345,7.1e-5 -0.154345,7.4e-5 -0.0995,0.05774 -0.0995,0.05774 -0.06066,0.0947 -0.06066,0.0947 -4.8e-5,0.116224 -4.7e-5,0.116227 0.05338,0.101116 0.05338,0.10112 0.103732,0.06596 0.103734,0.06595 z m -5.189611,-1.834022 0.104487,-0.02175 0.07869,-0.05484 0.07869,-0.05485 0.05338,-0.09963 0.05338,-0.09963 v -0.08717 -0.08717 l -0.05338,-0.101119 -0.05338,-0.10112 -0.103732,-0.06595 -0.103734,-0.06596 H 22.45755 22.301243 l -0.109574,0.07087 -0.109575,0.07087 -0.05361,0.107518 -0.05361,0.107516 0.01562,0.110822 0.01561,0.110818 0.06628,0.08859 0.06628,0.08859 0.06657,0.03404 0.06656,0.03404 0.09159,0.01864 0.09159,0.01861 z m 6.80608,-10.050114 h 0.03024 l 0.301885,-0.05663 0.301881,-0.05663 0.15066,-0.048036 0.150661,-0.04804 L 30.514561,9.8206252 30.728264,9.715858 31.033553,9.4240704 31.338838,9.13228 31.142313,9.12349 30.945784,9.1147 l -0.246138,0.046019 -0.24614,0.046019 -0.223847,0.1035614 -0.223844,0.1035613 -0.205783,0.1847638 -0.205781,0.1847613 -0.129472,0.175676 -0.129472,0.1756752 z m -3.376864,-0.03109 0.05343,0.0019 v -0.01809 -0.0181 L 25.906566,9.8885937 25.771035,9.7078232 25.598734,9.557945 25.426433,9.4080638 25.207643,9.3085608 24.988854,9.2090552 24.753544,9.1633506 24.518232,9.117643 H 24.3643 24.210369 v 0.030866 0.030862 l 0.282391,0.2706358 0.282391,0.2706387 0.263879,0.1208241 0.263878,0.1208281 0.316168,0.069618 0.316169,0.06962 z m -0.5344,-2.9347552 0.03801,0.00192 -0.421448,-0.399534 -0.421454,-0.3995288 -0.14331,-0.2074852 -0.143311,-0.2074844 -0.01895,-0.1316175 -0.01895,-0.1316198 0.07875,-0.074954 0.07875,-0.07495 h 0.07972 0.07972 l 0.06668,0.033499 0.06668,0.033499 0.588341,0.5373149 0.58834,0.5373187 0.01532,-0.014597 0.01532,-0.014567 L 25.880138,6.3658127 25.777807,6.0755114 25.668227,5.8890145 25.558647,5.702514 25.371594,5.5082249 25.184539,5.313932 24.97088,5.1660233 24.757221,5.0181153 24.567754,4.9203834 24.378286,4.8226515 24.088263,4.7205086 23.798239,4.6183682 23.538746,4.5747342 23.27925,4.5310992 l -0.132015,-0.014278 -0.132016,-0.014278 0.02224,0.048374 0.02223,0.048373 0.130321,0.5375464 0.130321,0.5375493 0.04915,0.129843 0.04915,0.1298464 0.137504,0.2099775 0.137503,0.2099775 0.198516,0.1731311 0.198514,0.1731285 0.281297,0.135576 0.281298,0.1355759 0.3815,0.097607 0.381498,0.097607 z m 4.602357,-0.00802 0.06105,-0.015912 0.198438,-0.046503 0.198435,-0.046507 0.19844,-0.060321 0.198436,-0.060321 0.213701,-0.1045394 0.213701,-0.1045395 0.260043,-0.2478058 0.260043,-0.2478062 0.09917,-0.1793006 0.09917,-0.1792975 0.04691,-0.125794 0.04691,-0.1257944 0.09106,-0.4155984 0.09106,-0.4156022 0.05953,-0.1437378 0.05953,-0.1437406 -0.02245,9.766e-4 -0.02245,9.767e-4 -0.228965,0.028203 -0.228966,0.028203 -0.259496,0.061681 -0.259493,0.061684 -0.295076,0.1244052 -0.295077,0.124408 -0.193383,0.1243632 -0.193384,0.1243602 -0.193219,0.1757617 -0.193218,0.1757658 -0.131758,0.18932 -0.131758,0.1893202 -0.07992,0.1816103 -0.07992,0.1816078 -0.04541,0.1659133 -0.04541,0.1659095 v 0.04445 0.04445 l 0.557148,-0.5260095 0.557151,-0.5260094 0.07549,-0.047565 0.07548,-0.047562 h 0.0943 0.0943 l 0.06681,0.059243 0.06681,0.059246 v 0.1015303 0.1015336 l -0.07609,0.1429132 -0.07609,0.1429162 -0.141401,0.1684763 -0.1414,0.1684793 -0.354924,0.3443281 -0.354924,0.3443282 z m -2.661006,-2.2853983 0.005,-1.28e-5 0.0084,-0.7889579 0.0084,-0.7889579 0.02831,-0.1916877 0.02831,-0.1916877 0.0935,-0.079907 0.0935,-0.079904 h 0.07784 0.07784 l 0.05874,0.029933 0.05874,0.029933 0.04203,0.079041 0.04202,0.079044 0.02328,0.1162273 0.02328,0.1162271 0.01897,0.8358045 0.01897,0.8358013 0.203334,-0.2427348 0.203329,-0.2427332 0.09575,-0.1481075 0.09575,-0.1481107 0.09263,-0.2415658 0.09263,-0.2415626 0.01605,-0.2469814 0.01604,-0.2469812 -0.0486,-0.1961285 -0.0486,-0.1961311 -0.09046,-0.1705648 -0.09046,-0.1705648 -0.179248,-0.214434 -0.179245,-0.2144371 -0.268955,-0.2392591 -0.268954,-0.2392559 -0.144204,0.1149118 -0.144203,0.1149119 -0.273706,0.272493 -0.273706,0.2724963 -0.09582,0.1615914 -0.09582,0.161585 -0.06842,0.1987522 -0.06842,0.1987522 -7.2e-5,0.2615113 -7.3e-5,0.261508 0.07029,0.2175748 0.07029,0.2175716 0.06227,0.1165769 0.06227,0.116577 0.12278,0.1743408 0.122781,0.1743377 0.15031,0.1816039 0.150309,0.1816044 z"
       id="path2" />
  </g>
</svg>
